<?xml version="1.0" encoding="UTF-8" standalone="no"?>
<svg
   xmlns:dc="http://purl.org/dc/elements/1.1/"
   xmlns:cc="http://creativecommons.org/ns#"
   xmlns:rdf="http://www.w3.org/1999/02/22-rdf-syntax-ns#"
   xmlns:svg="http://www.w3.org/2000/svg"
   xmlns="http://www.w3.org/2000/svg"
   version="1.1"
   id="svg2"
   viewBox="0 0 1000 1000"
   height="1000"
   width="1000">
  <defs
     id="defs4" />
  <metadata
     id="metadata7">
    <rdf:RDF>
      <cc:Work
         rdf:about="">
        <dc:format>image/svg+xml</dc:format>
        <dc:type
           rdf:resource="http://purl.org/dc/dcmitype/StillImage" />
        <dc:title></dc:title>
      </cc:Work>
    </rdf:RDF>
  </metadata>
  <g
     transform="translate(0,-52.362143)"
     id="layer1">
    <path
       id="path4187"
       d="m 0,535.21928 1000,0 0,-66.72531 -22.17234,0 -274.76149,0 -72.73098,-333.35034 -517.1981,0 -64.649768,333.35034 -48.487322,0 z"
       style="fill:#e1e1e1;fill-rule:evenodd;stroke:none;stroke-width:1px;stroke-linecap:butt;stroke-linejoin:miter;stroke-opacity:1;fill-opacity:1" />
    <path
       id="path4160"
       d="m 771.75654,468.49397 66.67007,-333.35034 68.69038,0 70.71067,333.35034"
       style="fill:#7c7c7c;fill-rule:evenodd;stroke:#000000;stroke-width:20;stroke-linecap:butt;stroke-linejoin:round;stroke-opacity:1;stroke-miterlimit:4;stroke-dasharray:none;fill-opacity:1" />
    <path
       id="path4154"
       d="m 0,468.49397 48.487322,0 64.649768,-333.35034 517.1981,0 72.73098,333.35034 299.79093,0"
       style="fill:none;fill-rule:evenodd;stroke:#000000;stroke-width:20;stroke-linecap:butt;stroke-linejoin:round;stroke-opacity:1;stroke-miterlimit:4;stroke-dasharray:none" />
    <path
       id="path4189"
       d="m 48.487322,771.53973 c 10.101525,-6.73435 22.403629,-10.98528 30.304576,-20.20305 4.996998,-5.82983 3.538422,-14.97119 6.060916,-22.22335 7.745037,-22.26699 10.70348,-24.09049 20.203046,-44.44672 1.53362,-3.28632 2.76725,-6.70587 4.04061,-10.10152 0.85908,-2.29087 1.16847,-6.64515 4.04062,-8.08122 0.60233,-0.30117 1.34687,0 2.0203,0 2.02031,0 4.16924,-0.70938 6.06092,0 3.67674,1.37878 6.83425,3.88273 10.10152,6.06091 11.41944,7.61296 18.07651,12.86625 28.28427,22.22336 3.51026,3.21774 6.56203,6.91598 10.10153,10.10152 3.20515,2.88464 6.85635,5.2417 10.10152,8.08122 9.06785,7.93437 19.26339,22.50531 22.22336,34.34519 0.83283,3.33133 1.34687,6.73435 2.0203,10.10153 0.67344,3.36717 1.6411,6.68867 2.02031,10.10152 0.29747,2.67727 -0.29747,5.40396 0,8.08122 0.37921,3.41286 1.67862,6.68471 2.0203,10.10153 0.60309,6.03083 -0.85714,12.18274 0,18.18274 0.62895,4.40261 3.96835,10.17379 6.06092,8.08122 1.06479,-1.06479 1.54411,-2.61203 2.0203,-4.04061 0.87806,-2.63415 1.67591,-5.32601 2.02031,-8.08122 0.33412,-2.67293 0,-5.38748 0,-8.08122 0,-3.36717 0,-6.73435 0,-10.10152 0,-16.83588 0,-33.67175 0,-50.50763 0,-4.71404 0,-9.42809 0,-14.14213 0,-2.02031 -0.63888,-4.14429 0,-6.06092 0.21296,-0.63888 1.34687,0 2.0203,0 20.87649,0 41.75298,0 62.62946,0 8.75466,0 17.50931,0 26.26397,0 4.04061,0 8.1282,-0.6144 12.12183,0 7.46234,1.14805 19.91459,5.65696 26.26397,10.10153 3.12088,2.18461 5.21426,5.57263 8.08122,8.08122 8.23185,7.20287 7.51194,4.16559 14.14213,12.12183 5.04538,6.05445 6.22187,12.76565 8.08122,20.20305 2.5103,10.0412 2.02031,5.30457 2.02031,14.14213 0,1.34687 0,2.69374 0,4.04061 0,0.67344 0,2.69374 0,2.02031 0,-13.4687 0,-26.9374 0,-40.4061 0,-10.77496 -0.35897,-21.55591 0,-32.32489 2.02397,-60.71929 1.25444,-1.88827 4.04061,-46.46701 0.5461,-8.73761 0,-17.50931 0,-26.26397 0,-2.37579 -1.20468,-9.70309 2.0203,-12.12183 3.54558,-2.65918 8.13586,-2.0203 12.12183,-2.0203 4.71405,0 9.45149,-0.46907 14.14214,0 4.07601,0.4076 8.35669,0.40667 12.12183,2.0203 24.8603,10.65441 42.49968,38.66893 58.58885,58.58885 4.38169,5.42495 28.88111,33.98192 34.34518,42.42641 3.27222,5.05705 5.78782,10.59274 8.08122,16.16244 7.78487,18.9061 5.69235,19.46249 10.10153,40.4061 1.14403,5.43417 2.87703,10.73242 4.04061,16.16244 0.8583,4.00542 1.28753,8.09156 2.0203,12.12183 0.61427,3.37847 1.34687,6.73435 2.02031,10.10152 0.67343,3.36718 0.78762,6.89655 2.0203,10.10153 3.70247,9.62641 12.72996,25.38558 20.20306,32.32488 5.83138,5.41486 20.55008,12.29535 28.28427,16.16244 2.69374,1.34687 5.38748,2.69374 8.08122,4.04061 2.69374,1.34687 5.22407,3.08823 8.08122,4.04061 1.27775,0.42592 2.69374,0 4.04061,0 0.67343,0 1.85697,0.65333 2.0203,0 0.65333,-2.61331 0,-5.38748 0,-8.08122 0,-10.77496 0,-21.54992 0,-32.32488 0,-37.71236 0,-75.42472 0,-113.13708 0,-7.40779 0,-14.81557 0,-22.22336 0,-1.34687 0,-2.69374 0,-4.04061 0,-0.67344 -0.60234,-1.71914 0,-2.02031 1.20468,-0.60233 2.69374,0 4.04061,0 4.71405,0 9.42809,0 14.14214,0 6.06091,0 12.196,-0.94527 18.18274,0 14.56432,2.29963 32.28151,11.08638 44.44672,18.18275 8.38938,4.89381 15.98553,11.05027 24.24366,16.16244 5.89526,3.64945 12.23737,6.5343 18.18274,10.10153 4.16417,2.4985 8.02484,5.47404 12.12183,8.08122 3.31287,2.10818 6.73435,4.04061 10.10153,6.06091 3.36717,2.02031 6.58932,4.30481 10.10152,6.06092 6.9995,3.49975 11.75612,3.7968 18.18275,8.08122 2.8187,1.87913 6.73034,7.39977 8.08122,10.10152 0.95238,1.90477 0.92464,4.23481 2.02031,6.06092 0.97999,1.63332 2.69374,2.69374 4.04061,4.04061 0.67343,0.67343 2.0203,1.06792 2.0203,2.0203 0,0.67344 -1.61624,0.53875 -2.0203,0 -1.80702,-2.40935 -2.49111,-5.49871 -4.04061,-8.08122 -2.4985,-4.16416 -5.67187,-7.90546 -8.08122,-12.12183 -8.16866,-14.29514 -10.76224,-21.4863 -14.14214,-38.38579 -1.2381,-6.19052 -7.32289,-53.28052 -8.08122,-58.58885 -0.52999,-3.70994 -5.59988,-34.5888 -6.06092,-42.42641 -0.35591,-6.05045 0,-12.12183 0,-18.18274 0,-9.42809 0,-18.85618 0,-28.28428 0,-7.40778 0,-14.81557 0,-22.22335 0,-1.34687 -0.95238,-3.08823 0,-4.04061 0.95238,-0.95238 2.69374,0 4.04061,0 2.69374,0 5.38748,0 8.08122,0 8.08122,0 16.16245,0 24.24367,0 5.38748,0 10.95686,-1.38815 16.16244,0 5.24608,1.39895 9.87289,4.72681 14.14213,8.08122 14.8995,11.70675 17.54327,18.9241 26.26397,36.36549 6.76028,13.52057 20.8085,45.99932 26.26396,58.58885 10.04029,23.16989 14.55251,32.59712 22.22336,56.56854 2.34017,7.31304 3.52437,14.97609 6.06092,22.22336 2.19107,6.2602 5.7883,11.95912 8.08122,18.18274 2.4306,6.59737 3.73826,13.56691 6.06091,20.20305 2.39607,6.84592 5.49915,13.42511 8.08122,20.20305 19.56875,51.36796 -3.67984,-8.09925 16.16244,46.46702 9.27827,25.51523 5.70119,13.94852 16.16244,36.36549 2.16887,4.64757 3.91168,9.48546 6.06092,14.14214 1.89311,4.10174 4.51708,7.87628 6.06091,12.12183 6.12362,3.88352 0.51446,9.6246 2.02031,14.14213 0.30117,0.90351 2.69374,1.34688 2.0203,2.02031 -0.95238,0.95238 -2.69374,0 -4.04061,0"
       style="fill:none;fill-rule:evenodd;stroke:#000fff;stroke-width:10;stroke-linecap:butt;stroke-linejoin:miter;stroke-opacity:1;stroke-miterlimit:4;stroke-dasharray:none" />
  </g>
  <g
     id="layer2">
    <circle
       r="304.05591"
       cy="518.15723"
       cx="673.77173"
       id="path4163"
       style="fill:#63fffa;fill-opacity:0.42964825;stroke:#645016;stroke-width:20;stroke-linecap:butt;stroke-linejoin:round;stroke-miterlimit:4;stroke-dasharray:none;stroke-opacity:1" />
    <path
       id="path4171"
       d="M 433.67773 706.85547 L 108.25195 1000 L 216.91992 1000 L 486 757.30469 L 433.67773 706.85547 z "
       style="fill:#3c3000;fill-rule:evenodd;stroke:#645016;stroke-width:20;stroke-linecap:butt;stroke-linejoin:miter;stroke-opacity:1;fill-opacity:1;stroke-miterlimit:4;stroke-dasharray:none" />
  </g>
</svg>
